<svg width="95" height="70" viewBox="0 0 95 70" fill="none" xmlns="http://www.w3.org/2000/svg">
<path opacity="0.5" d="M69.1163 47.0044L20.7738 56.1856C20.5513 56.2211 20.3806 56.016 20.451 55.8143L24.4253 44.4359L48.6546 39.8413C48.877 39.8059 48.9676 39.5466 48.8155 39.3804L32.7161 20.6996L36.6703 9.37871C36.7407 9.17707 37.002 9.1229 37.1541 9.28912L69.2773 46.5435C69.4099 46.7191 69.3194 46.9784 69.1163 47.0044Z" fill="#1B998B"/>
<path opacity="0.5" d="M24.4251 44.4356L11.9232 46.8239C11.7007 46.8593 11.5299 46.6542 11.6004 46.4526L23.9164 11.1455C23.9869 10.9439 24.2482 10.8897 24.4002 11.0559L32.7158 20.6993L24.4251 44.4356Z" fill="#1B998B"/>
<path d="M48.6547 39.8411L24.4255 44.4357L32.7162 20.6994L48.8157 39.3802C48.9677 39.5464 48.8772 39.8057 48.6547 39.8411Z" fill="#1B998B"/>
<path d="M22.6001 21.14H25.7201V35H22.6001V21.14ZM31.2682 29.4C31.2682 31.0667 31.9415 31.9 33.2882 31.9C33.5949 31.9 33.8815 31.86 34.1482 31.78C34.4149 31.7 34.6415 31.6067 34.8282 31.5V26.74C34.6815 26.7133 34.5082 26.6933 34.3082 26.68C34.1082 26.6533 33.8749 26.64 33.6082 26.64C32.8215 26.64 32.2349 26.9 31.8482 27.42C31.4615 27.94 31.2682 28.6 31.2682 29.4ZM37.8082 33.68C37.8082 35.4 37.3682 36.6733 36.4882 37.5C35.6215 38.34 34.2749 38.76 32.4482 38.76C31.8082 38.76 31.1682 38.7 30.5282 38.58C29.8882 38.4733 29.2949 38.3267 28.7482 38.14L29.2682 35.64C29.7349 35.8267 30.2215 35.9733 30.7282 36.08C31.2482 36.1867 31.8349 36.24 32.4882 36.24C33.3415 36.24 33.9415 36.0533 34.2882 35.68C34.6482 35.3067 34.8282 34.8267 34.8282 34.24V33.86C34.5082 34.0067 34.1749 34.12 33.8282 34.2C33.4949 34.2667 33.1282 34.3 32.7282 34.3C31.2749 34.3 30.1615 33.8733 29.3882 33.02C28.6149 32.1533 28.2282 30.9467 28.2282 29.4C28.2282 28.6267 28.3482 27.9267 28.5882 27.3C28.8282 26.66 29.1749 26.1133 29.6282 25.66C30.0949 25.2067 30.6615 24.86 31.3282 24.62C31.9949 24.3667 32.7482 24.24 33.5882 24.24C33.9482 24.24 34.3149 24.26 34.6882 24.3C35.0749 24.3267 35.4549 24.3667 35.8282 24.42C36.2015 24.4733 36.5549 24.54 36.8882 24.62C37.2349 24.6867 37.5415 24.76 37.8082 24.84V33.68ZM50.1032 35C49.2099 33.4133 48.2432 31.8467 47.2032 30.3C46.1632 28.7533 45.0565 27.2933 43.8832 25.92V35H40.8032V21.14H43.3432C43.7832 21.58 44.2699 22.12 44.8032 22.76C45.3365 23.4 45.8765 24.0867 46.4232 24.82C46.9832 25.54 47.5365 26.2933 48.0832 27.08C48.6299 27.8533 49.1432 28.6 49.6232 29.32V21.14H52.7232V35H50.1032ZM58.7004 35H55.7204V24.48H58.7004V35ZM58.9804 21.44C58.9804 21.9867 58.8004 22.42 58.4404 22.74C58.0937 23.0467 57.6804 23.2 57.2004 23.2C56.7204 23.2 56.3004 23.0467 55.9404 22.74C55.5937 22.42 55.4204 21.9867 55.4204 21.44C55.4204 20.8933 55.5937 20.4667 55.9404 20.16C56.3004 19.84 56.7204 19.68 57.2004 19.68C57.6804 19.68 58.0937 19.84 58.4404 20.16C58.8004 20.4667 58.9804 20.8933 58.9804 21.44ZM64.0416 29.4C64.0416 31.0667 64.715 31.9 66.0616 31.9C66.3683 31.9 66.655 31.86 66.9216 31.78C67.1883 31.7 67.415 31.6067 67.6016 31.5V26.74C67.455 26.7133 67.2816 26.6933 67.0816 26.68C66.8816 26.6533 66.6483 26.64 66.3816 26.64C65.595 26.64 65.0083 26.9 64.6216 27.42C64.235 27.94 64.0416 28.6 64.0416 29.4ZM70.5816 33.68C70.5816 35.4 70.1416 36.6733 69.2616 37.5C68.395 38.34 67.0483 38.76 65.2216 38.76C64.5816 38.76 63.9416 38.7 63.3016 38.58C62.6616 38.4733 62.0683 38.3267 61.5216 38.14L62.0416 35.64C62.5083 35.8267 62.995 35.9733 63.5016 36.08C64.0216 36.1867 64.6083 36.24 65.2616 36.24C66.115 36.24 66.715 36.0533 67.0616 35.68C67.4216 35.3067 67.6016 34.8267 67.6016 34.24V33.86C67.2816 34.0067 66.9483 34.12 66.6016 34.2C66.2683 34.2667 65.9016 34.3 65.5016 34.3C64.0483 34.3 62.935 33.8733 62.1616 33.02C61.3883 32.1533 61.0016 30.9467 61.0016 29.4C61.0016 28.6267 61.1216 27.9267 61.3616 27.3C61.6016 26.66 61.9483 26.1133 62.4016 25.66C62.8683 25.2067 63.435 24.86 64.1016 24.62C64.7683 24.3667 65.5216 24.24 66.3616 24.24C66.7216 24.24 67.0883 24.26 67.4616 24.3C67.8483 24.3267 68.2283 24.3667 68.6016 24.42C68.975 24.4733 69.3283 24.54 69.6616 24.62C70.0083 24.6867 70.315 24.76 70.5816 24.84V33.68ZM73.3766 35V19.96L76.3566 19.48V24.52C76.5566 24.4533 76.81 24.3933 77.1166 24.34C77.4366 24.2733 77.7433 24.24 78.0366 24.24C78.89 24.24 79.5966 24.36 80.1566 24.6C80.73 24.8267 81.1833 25.1533 81.5166 25.58C81.8633 26.0067 82.1033 26.5133 82.2366 27.1C82.3833 27.6867 82.4566 28.34 82.4566 29.06V35H79.4766V29.42C79.4766 28.46 79.35 27.78 79.0966 27.38C78.8566 26.98 78.4033 26.78 77.7366 26.78C77.47 26.78 77.2166 26.8067 76.9766 26.86C76.75 26.9 76.5433 26.9467 76.3566 27V35H73.3766ZM85.054 21.86L88.034 21.38V24.48H91.614V26.96H88.034V30.66C88.034 31.2867 88.1406 31.7867 88.354 32.16C88.5806 32.5333 89.0273 32.72 89.694 32.72C90.014 32.72 90.3406 32.6933 90.674 32.64C91.0206 32.5733 91.334 32.4867 91.614 32.38L92.034 34.7C91.674 34.8467 91.274 34.9733 90.834 35.08C90.394 35.1867 89.854 35.24 89.214 35.24C88.4006 35.24 87.7273 35.1333 87.194 34.92C86.6606 34.6933 86.234 34.3867 85.914 34C85.594 33.6 85.3673 33.12 85.234 32.56C85.114 32 85.054 31.38 85.054 30.7V21.86Z" fill="white"/>
<path d="M66.6521 45.716C66.9801 45.716 67.2121 45.684 67.3481 45.62C67.4841 45.556 67.5521 45.432 67.5521 45.248C67.5521 45.104 67.4641 44.98 67.2881 44.876C67.1121 44.764 66.8441 44.64 66.4841 44.504C66.2041 44.4 65.9481 44.292 65.7161 44.18C65.4921 44.068 65.3001 43.936 65.1401 43.784C64.9801 43.624 64.8561 43.436 64.7681 43.22C64.6801 43.004 64.6361 42.744 64.6361 42.44C64.6361 41.848 64.8561 41.38 65.2961 41.036C65.7361 40.692 66.3401 40.52 67.1081 40.52C67.4921 40.52 67.8601 40.556 68.2121 40.628C68.5641 40.692 68.8441 40.764 69.0521 40.844L68.7401 42.236C68.5321 42.164 68.3041 42.1 68.0561 42.044C67.8161 41.988 67.5441 41.96 67.2401 41.96C66.6801 41.96 66.4001 42.116 66.4001 42.428C66.4001 42.5 66.4121 42.564 66.4361 42.62C66.4601 42.676 66.5081 42.732 66.5801 42.788C66.6521 42.836 66.7481 42.892 66.8681 42.956C66.9961 43.012 67.1561 43.076 67.3481 43.148C67.7401 43.292 68.0641 43.436 68.3201 43.58C68.5761 43.716 68.7761 43.868 68.9201 44.036C69.0721 44.196 69.1761 44.376 69.2321 44.576C69.2961 44.776 69.3281 45.008 69.3281 45.272C69.3281 45.896 69.0921 46.368 68.6201 46.688C68.1561 47.008 67.4961 47.168 66.6401 47.168C66.0801 47.168 65.6121 47.12 65.2361 47.024C64.8681 46.928 64.6121 46.848 64.4681 46.784L64.7681 45.332C65.0721 45.452 65.3841 45.548 65.7041 45.62C66.0241 45.684 66.3401 45.716 66.6521 45.716ZM70.6643 47V37.976L72.4523 37.688V40.712C72.5723 40.672 72.7243 40.636 72.9083 40.604C73.1003 40.564 73.2843 40.544 73.4603 40.544C73.9723 40.544 74.3963 40.616 74.7323 40.76C75.0763 40.896 75.3483 41.092 75.5483 41.348C75.7563 41.604 75.9003 41.908 75.9803 42.26C76.0683 42.612 76.1123 43.004 76.1123 43.436V47H74.3243V43.652C74.3243 43.076 74.2483 42.668 74.0963 42.428C73.9523 42.188 73.6803 42.068 73.2803 42.068C73.1203 42.068 72.9683 42.084 72.8243 42.116C72.6883 42.14 72.5643 42.168 72.4523 42.2V47H70.6643ZM83.6347 43.832C83.6347 44.328 83.5627 44.784 83.4187 45.2C83.2747 45.608 83.0667 45.96 82.7947 46.256C82.5227 46.544 82.1947 46.768 81.8107 46.928C81.4347 47.088 81.0107 47.168 80.5387 47.168C80.0747 47.168 79.6507 47.088 79.2667 46.928C78.8907 46.768 78.5667 46.544 78.2947 46.256C78.0227 45.96 77.8107 45.608 77.6587 45.2C77.5067 44.784 77.4307 44.328 77.4307 43.832C77.4307 43.336 77.5067 42.884 77.6587 42.476C77.8187 42.068 78.0347 41.72 78.3067 41.432C78.5867 41.144 78.9147 40.92 79.2907 40.76C79.6747 40.6 80.0907 40.52 80.5387 40.52C80.9947 40.52 81.4107 40.6 81.7867 40.76C82.1707 40.92 82.4987 41.144 82.7707 41.432C83.0427 41.72 83.2547 42.068 83.4067 42.476C83.5587 42.884 83.6347 43.336 83.6347 43.832ZM81.8107 43.832C81.8107 43.28 81.6987 42.848 81.4747 42.536C81.2587 42.216 80.9467 42.056 80.5387 42.056C80.1307 42.056 79.8147 42.216 79.5907 42.536C79.3667 42.848 79.2547 43.28 79.2547 43.832C79.2547 44.384 79.3667 44.824 79.5907 45.152C79.8147 45.472 80.1307 45.632 80.5387 45.632C80.9467 45.632 81.2587 45.472 81.4747 45.152C81.6987 44.824 81.8107 44.384 81.8107 43.832ZM89.0638 43.892C89.0638 43.34 88.9398 42.9 88.6918 42.572C88.4438 42.236 88.0758 42.068 87.5878 42.068C87.4278 42.068 87.2798 42.076 87.1438 42.092C87.0078 42.1 86.8958 42.112 86.8078 42.128V45.356C86.9198 45.428 87.0638 45.488 87.2398 45.536C87.4238 45.584 87.6078 45.608 87.7918 45.608C88.6398 45.608 89.0638 45.036 89.0638 43.892ZM90.8878 43.844C90.8878 44.332 90.8278 44.776 90.7078 45.176C90.5878 45.576 90.4118 45.92 90.1798 46.208C89.9478 46.496 89.6598 46.72 89.3158 46.88C88.9718 47.04 88.5758 47.12 88.1278 47.12C87.8798 47.12 87.6478 47.096 87.4318 47.048C87.2158 47 87.0078 46.932 86.8078 46.844V49.22H85.0198V40.904C85.1798 40.856 85.3638 40.812 85.5718 40.772C85.7798 40.724 85.9958 40.684 86.2198 40.652C86.4518 40.62 86.6838 40.596 86.9158 40.58C87.1558 40.556 87.3838 40.544 87.5998 40.544C88.1198 40.544 88.5838 40.624 88.9918 40.784C89.3998 40.936 89.7438 41.156 90.0238 41.444C90.3038 41.724 90.5158 42.068 90.6598 42.476C90.8118 42.884 90.8878 43.34 90.8878 43.844Z" fill="white"/>
</svg>
